<?xml version="1.0" encoding="UTF-8"?>
<svg viewBox="0 0 18 18" version="1.1" xmlns="http://www.w3.org/2000/svg">
    <g id="Symbols" stroke="none" stroke-width="1" fill="none" fill-rule="evenodd">
        <g id="UI/Search/Search-by/Search-Copy" transform="translate(-303 -14)" fill="#2599F2">
            <path d="M309.685714 25.3142857c-2.571428 0-4.628571-2.0571428-4.628571-4.6285714 0-2.5714286 2.057143-4.6285714 4.628571-4.6285714 2.571429 0 4.628572 2.0571428 4.628572 4.6285714 0 2.5714286-2.057143 4.6285714-4.628572 4.6285714zm6.171429 0h-.822857l-.308572-.3085714c1.028572-1.1314286 1.645715-2.6742857 1.645715-4.32 0-3.7028572-2.982858-6.6857143-6.685715-6.6857143C305.982857 14 303 16.9828571 303 20.6857143c0 3.7028571 2.982857 6.6857143 6.685714 6.6857143 1.645715 0 3.188572-.6171429 4.32-1.6457143l.308572.3085714v.8228572L319.457143 32 321 30.4571429l-5.142857-5.1428572z" id="Fill-1-Copy-6"/>
        </g>
    </g>
</svg>